<svg width="311" height="311" viewBox="0 0 311 311" fill="none" xmlns="http://www.w3.org/2000/svg">
<g filter="url(#filter0_d_84_112)">
<circle cx="155.5" cy="151.5" r="104.5" fill="#FF6600"/>
</g>
<path d="M177.672 136.328C177.672 139.578 176.969 142.391 175.562 144.766C174.188 147.109 172.344 149.031 170.031 150.531C167.75 152.031 165.25 153.156 162.531 153.906V154.188C168 154.875 172.219 156.547 175.188 159.203C178.188 161.828 179.688 165.562 179.688 170.406C179.688 174.156 178.688 177.594 176.688 180.719C174.688 183.812 171.578 186.297 167.359 188.172C163.141 190.016 157.719 190.938 151.094 190.938C146.656 190.938 142.875 190.609 139.75 189.953C136.625 189.297 133.594 188.391 130.656 187.234V171.859C133.625 173.391 136.672 174.531 139.797 175.281C142.953 176 145.828 176.359 148.422 176.359C152.922 176.359 155.984 175.719 157.609 174.438C159.266 173.156 160.094 171.438 160.094 169.281C160.094 167.719 159.703 166.391 158.922 165.297C158.141 164.203 156.688 163.359 154.562 162.766C152.469 162.172 149.453 161.875 145.516 161.875H141.297V147.953H145.609C149.109 147.953 151.875 147.641 153.906 147.016C155.969 146.391 157.453 145.547 158.359 144.484C159.266 143.391 159.719 142.141 159.719 140.734C159.719 138.922 159.016 137.578 157.609 136.703C156.203 135.828 154.344 135.391 152.031 135.391C149.969 135.391 148.031 135.672 146.219 136.234C144.406 136.797 142.828 137.422 141.484 138.109C140.141 138.797 139.125 139.359 138.438 139.797L130.75 127.422C133.594 125.484 136.844 123.844 140.5 122.5C144.188 121.156 149 120.484 154.938 120.484C162 120.484 167.547 121.891 171.578 124.703C175.641 127.516 177.672 131.391 177.672 136.328Z" fill="white"/>
<defs>
<filter id="filter0_d_84_112" x="0" y="0" width="311" height="311" filterUnits="userSpaceOnUse" color-interpolation-filters="sRGB">
<feFlood flood-opacity="0" result="BackgroundImageFix"/>
<feColorMatrix in="SourceAlpha" type="matrix" values="0 0 0 0 0 0 0 0 0 0 0 0 0 0 0 0 0 0 127 0" result="hardAlpha"/>
<feOffset dy="4"/>
<feGaussianBlur stdDeviation="25.5"/>
<feComposite in2="hardAlpha" operator="out"/>
<feColorMatrix type="matrix" values="0 0 0 0 1 0 0 0 0 0.524794 0 0 0 0 0.475833 0 0 0 1 0"/>
<feBlend mode="normal" in2="BackgroundImageFix" result="effect1_dropShadow_84_112"/>
<feBlend mode="normal" in="SourceGraphic" in2="effect1_dropShadow_84_112" result="shape"/>
</filter>
</defs>
</svg>
